<svg width="217" height="217" viewBox="0 0 217 217" fill="none" xmlns="http://www.w3.org/2000/svg">
<mask id="mask0_215_174" style="mask-type:alpha" maskUnits="userSpaceOnUse" x="0" y="0" width="217" height="217">
<circle cx="108.5" cy="108.5" r="108.5" fill="#C4C4C4"/>
</mask>
<g mask="url(#mask0_215_174)">
<path d="M-655.59 137.588C-523.948 276.182 -168.475 481.76 200.286 195.321C569.046 -91.1182 671.079 -9.48007 676 67.1439" stroke="#9F9F9F" stroke-opacity="0.4" stroke-width="2"/>
<path d="M-655.59 -12.4323C-523.948 126.162 -168.475 331.74 200.286 45.3005C569.046 -241.139 671.079 -159.501 676 -82.8767" stroke="#9F9F9F" stroke-opacity="0.4" stroke-width="2"/>
<path d="M-655.59 65.9574C-523.948 204.551 -168.475 410.129 200.286 123.69C569.046 -162.749 671.079 -81.1109 676 -4.487" stroke="#9F9F9F" stroke-opacity="0.4" stroke-width="2"/>
<path d="M-655.59 -84.0634C-523.948 54.5305 -168.475 260.108 200.286 -26.3306C569.046 -312.77 671.079 -231.132 676 -154.508" stroke="#9F9F9F" stroke-opacity="0.4" stroke-width="2"/>
<path d="M-656 116.804C-524.358 255.398 -168.885 460.976 199.876 174.537C568.636 -111.902 670.669 -30.264 675.59 46.3599" stroke="#9F9F9F" stroke-opacity="0.4" stroke-width="2"/>
<path d="M-656 -33.2165C-524.358 105.377 -168.885 310.955 199.876 24.5163C568.636 -261.923 670.669 -180.285 675.59 -103.661" stroke="#9F9F9F" stroke-opacity="0.4" stroke-width="2"/>
<path d="M-656 45.1729C-524.358 183.767 -168.885 389.345 199.876 102.906C568.636 -183.533 670.669 -101.895 675.59 -25.2714" stroke="#9F9F9F" stroke-opacity="0.4" stroke-width="2"/>
<path d="M-656 -104.847C-524.358 33.7468 -168.885 239.325 199.876 -47.1143C568.636 -333.553 670.669 -251.915 675.59 -175.291" stroke="#9F9F9F" stroke-opacity="0.4" stroke-width="2"/>
<path d="M-656 97.7364C-524.358 236.33 -168.885 441.908 199.876 155.469C568.636 -130.97 670.669 -49.3319 675.59 27.292" stroke="#9F9F9F" stroke-opacity="0.4" stroke-width="2"/>
<path d="M-656 -52.2838C-524.358 86.31 -168.885 291.888 199.876 5.44889C568.636 -280.99 670.669 -199.352 675.59 -122.728" stroke="#9F9F9F" stroke-opacity="0.4" stroke-width="2"/>
<path d="M-656 26.1056C-524.358 164.699 -168.885 370.277 199.876 83.8383C568.636 -202.601 670.669 -120.963 675.59 -44.3388" stroke="#9F9F9F" stroke-opacity="0.4" stroke-width="2"/>
<path d="M-656 -123.915C-524.358 14.6787 -168.885 220.257 199.876 -66.1825C568.636 -352.622 670.669 -270.983 675.59 -194.36" stroke="#9F9F9F" stroke-opacity="0.4" stroke-width="2"/>
<path d="M-656 82.9063C-524.358 221.5 -168.885 427.078 199.876 140.639C568.636 -145.8 670.669 -64.162 675.59 12.462" stroke="#9F9F9F" stroke-opacity="0.4" stroke-width="2"/>
<path d="M-656 -67.1144C-524.358 71.4795 -168.885 277.057 199.876 -9.38167C568.636 -295.821 670.669 -214.183 675.59 -137.559" stroke="#9F9F9F" stroke-opacity="0.4" stroke-width="2"/>
<path d="M-656 11.275C-524.358 149.869 -168.885 355.447 199.876 69.0077C568.636 -217.431 670.669 -135.793 675.59 -59.1694" stroke="#9F9F9F" stroke-opacity="0.4" stroke-width="2"/>
<path d="M-656 -141.923C-524.358 -3.32937 -168.885 202.249 199.876 -84.1905C568.636 -370.63 670.669 -288.992 675.59 -212.368" stroke="#9F9F9F" stroke-opacity="0.4" stroke-width="2"/>
</g>
</svg>
